<?xml version="1.0" encoding="utf-8"?>
<!-- Generator: Adobe Illustrator 27.5.0, SVG Export Plug-In . SVG Version: 6.00 Build 0)  -->
<svg version="1.1" id="Layer_1" xmlns="http://www.w3.org/2000/svg" xmlns:xlink="http://www.w3.org/1999/xlink" x="0px" y="0px"
	 viewBox="0 0 9000 4000" style="enable-background:new 0 0 9000 4000;" xml:space="preserve">
<g>
	<defs>
		<rect id="SVGID_1_" width="9000" height="4000"/>
	</defs>
	<clipPath id="SVGID_00000169544516572248868690000012281101002544189592_">
		<use xlink:href="#SVGID_1_"  style="overflow:visible;"/>
	</clipPath>
	
		<rect x="22.811" y="22.668" style="clip-path:url(#SVGID_00000169544516572248868690000012281101002544189592_);fill-rule:evenodd;clip-rule:evenodd;fill:#FCFCFC;" width="8954.377" height="3954.665"/>
	<g style="clip-path:url(#SVGID_00000169544516572248868690000012281101002544189592_);">
		<defs>
			<path id="SVGID_00000037652330088407062990000013010021158799800448_" d="M4735.894,970.832
				c1329.992,796.313,4282.49,827.561,3884.389,3006.5h356.905V22.668h-4919.29C3950.764,318.67,4210.933,656.531,4735.894,970.832"
				/>
		</defs>
		<clipPath id="SVGID_00000049189979180833862520000017561321606861743282_">
			<use xlink:href="#SVGID_00000037652330088407062990000013010021158799800448_"  style="overflow:visible;"/>
		</clipPath>
		
			<linearGradient id="SVGID_00000096023581971251375920000011497569895125233589_" gradientUnits="userSpaceOnUse" x1="7397.0698" y1="2324.1267" x2="3821.7378" y2="1054.1362">
			<stop  offset="0" style="stop-color:#003780"/>
			<stop  offset="1" style="stop-color:#29C5FF"/>
		</linearGradient>
		
			<rect x="3950.764" y="22.668" style="clip-path:url(#SVGID_00000049189979180833862520000017561321606861743282_);fill:url(#SVGID_00000096023581971251375920000011497569895125233589_);" width="5067.62" height="3954.665"/>
	</g>
	<g style="clip-path:url(#SVGID_00000169544516572248868690000012281101002544189592_);">
		<defs>
			<path id="SVGID_00000097472364722900871310000014038947319357147070_" d="M6069.797,22.668
				c1255.399,1467.981-593.017,3205.226,1504.524,3954.665h1402.867V22.668H6069.797z"/>
		</defs>
		<clipPath id="SVGID_00000117674413925402464890000014127648443226834869_">
			<use xlink:href="#SVGID_00000097472364722900871310000014038947319357147070_"  style="overflow:visible;"/>
		</clipPath>
		
			<linearGradient id="SVGID_00000176744165588965049290000007498286258231041443_" gradientUnits="userSpaceOnUse" x1="9654.2969" y1="2784.4358" x2="5172.6147" y2="1336.0881">
			<stop  offset="0" style="stop-color:#003780"/>
			<stop  offset="1" style="stop-color:#29C5FF"/>
		</linearGradient>
		
			<rect x="5476.781" y="22.668" style="opacity:0.9;clip-path:url(#SVGID_00000117674413925402464890000014127648443226834869_);fill:url(#SVGID_00000176744165588965049290000007498286258231041443_);" width="3500.408" height="3954.665"/>
	</g>
	
		<path style="clip-path:url(#SVGID_00000169544516572248868690000012281101002544189592_);fill-rule:evenodd;clip-rule:evenodd;" d="
		M1718.981,3795.335v-143.711h37.981c19.976,0,37.021,7.022,51.168,21.081c14.077,14.058,21.112,30.991,21.112,50.807
		c0,19.753-7.035,36.683-21.112,50.742c-14.148,14.052-31.192,21.081-51.168,21.081H1718.981z M1740.816,3773.638h16.146
		c13.904,0,25.806-4.903,35.707-14.779c9.836-9.765,14.736-21.525,14.736-35.346c0-13.848-4.9-25.676-14.736-35.45
		c-9.9-9.838-21.803-14.773-35.707-14.773h-16.146V3773.638z M1621.761,3651.624v102.744l-61.753-102.744h-22.948v143.711h21.912
		v-102.741l61.855,102.741h22.944v-143.711H1621.761z M1409.416,3796.641c-14.143,0-26.292-4.973-36.398-14.945
		c-10.044-9.981-15.042-22.047-15.042-36.171v-94.01h22.011v94.01c0,8.09,2.865,14.979,8.627,20.671
		c5.76,5.758,12.724,8.643,20.802,8.643c8.141,0,15.11-2.886,20.841-8.643c5.794-5.692,8.657-12.581,8.657-20.671v-94.01h22.045
		v94.01c0,14.124-5.037,26.19-15.145,36.171C1435.773,3791.667,1423.628,3796.641,1409.416,3796.641z M1213.352,3796.743
		c-20.355,0-37.741-7.163-52.163-21.498c-14.426-14.331-21.63-31.608-21.63-51.837c0-20.226,7.204-37.472,21.63-51.8
		c14.421-14.331,31.808-21.494,52.163-21.494c20.325,0,37.712,7.163,52.131,21.494c14.421,14.328,21.637,31.574,21.637,51.8
		c0,20.229-7.215,37.506-21.637,51.837C1251.064,3789.58,1233.677,3796.743,1213.352,3796.743z M1213.352,3671.986
		c-14.282,0-26.498,5.037-36.603,15.081c-10.108,10.049-15.145,22.148-15.145,36.341c0,14.195,5.037,26.333,15.145,36.375
		c10.105,10.051,22.321,15.056,36.603,15.056c14.285,0,26.461-5.005,36.573-15.056c10.108-10.042,15.177-22.18,15.177-36.375
		c0-14.192-5.069-26.292-15.177-36.341C1239.814,3677.023,1227.637,3671.986,1213.352,3671.986z M1048.722,3731.467
		c7.56-3.219,13.625-8.262,18.288-15.081c4.79-6.966,7.177-14.675,7.177-23.112c0-11.515-4.106-21.319-12.318-29.416
		c-8.18-8.154-18.007-12.234-29.532-12.234h-53.379v143.711h21.947v-60.58h24.773l31.633,60.58h24.771L1048.722,3731.467z
		 M1000.905,3712.988v-39.594h31.432c5.445,0,10.14,1.952,14.038,5.828c3.869,3.906,5.762,8.571,5.762,14.052
		c0,5.456-1.893,10.049-5.762,13.886c-3.899,3.874-8.593,5.828-14.038,5.828H1000.905z M874.815,3796.743
		c-20.357,0-37.744-7.163-52.17-21.498c-14.421-14.331-21.63-31.608-21.63-51.837c0-20.226,7.208-37.472,21.63-51.8
		c14.426-14.331,31.813-21.494,52.17-21.494c10.035,0,19.593,1.881,28.704,5.724l-8.522,20.197
		c-6.453-2.784-13.185-4.153-20.181-4.153c-14.323,0-26.5,5.078-36.605,15.185c-10.115,10.049-15.151,22.148-15.151,36.341
		c0,14.195,5.037,26.333,15.151,36.375c10.105,10.051,22.282,15.056,36.605,15.056c4.622,0,9.136-0.553,13.52-1.684v-39.188h-23.459
		v-21.906h45.509v76.041l-6.7,2.813C894.478,3794.791,884.85,3796.743,874.815,3796.743z M734.917,3651.624l-50.507,62.359v-62.359
		h-21.947v143.711h21.947v-46.487l6.757-8.367l45.374,54.854h28.496l-59.825-72.197l57.82-71.514H734.917z M565.974,3774.839
		c-14.282,0-26.498-5.005-36.606-15.056c-10.105-10.042-15.142-22.18-15.142-36.375c0-14.192,5.037-26.292,15.142-36.341
		c10.108-10.108,22.323-15.185,36.606-15.185c8.762,0,16.942,2.09,24.566,6.24v-23.896c-7.973-2.745-16.146-4.112-24.566-4.112
		c-20.355,0-37.744,7.163-52.163,21.494c-14.426,14.328-21.637,31.574-21.637,51.8c0,20.229,7.211,37.506,21.637,51.837
		c14.419,14.335,31.808,21.498,52.163,21.498c8.42,0,16.593-1.408,24.566-4.214v-23.794
		C582.916,3772.815,574.736,3774.839,565.974,3774.839z M399.102,3684.637v55.368h-35.301L399.102,3684.637z M394.129,3651.624
		l-91.46,143.711h25.982l21.32-33.56h49.131v33.56h22.011v-143.711H394.129z M154.6,3795.335v-143.711h45.406
		c11.451,0,21.215,4.01,29.285,12.028c8.109,8.097,12.143,17.83,12.143,29.146c0,10.115-3.278,18.955-9.795,26.603
		c5.587,3.804,9.971,8.707,13.146,14.675c3.349,6.097,5.037,12.612,5.037,19.571c0,11.522-4.106,21.328-12.318,29.448
		c-8.173,8.16-18.01,12.241-29.532,12.241H154.6z M176.54,3773.536h31.432c5.452,0,10.146-1.922,14.077-5.828
		c3.828-3.876,5.73-8.573,5.73-14.061c0-5.415-1.902-10.042-5.73-13.845c-3.93-3.876-8.625-5.835-14.077-5.835H176.54V3773.536z
		 M176.54,3712.165h23.466c5.379,0,9.964-1.884,13.728-5.726c3.867-3.733,5.76-8.294,5.76-13.642c0-5.352-1.893-9.908-5.76-13.68
		c-3.764-3.811-8.349-5.724-13.728-5.724H176.54V3712.165z"/>
</g>
</svg>
