<?xml version="1.0" standalone="no"?>
<!DOCTYPE svg PUBLIC "-//W3C//DTD SVG 20010904//EN"
 "http://www.w3.org/TR/2001/REC-SVG-20010904/DTD/svg10.dtd">
<svg version="1.0" xmlns="http://www.w3.org/2000/svg"
 width="995.000000pt" height="399.000000pt" viewBox="0 0 995.000000 399.000000"
 preserveAspectRatio="xMidYMid meet">

<g transform="translate(0.000000,399.000000) scale(0.100000,-0.100000)"
fill="#000000" stroke="none">
<path d="M1079 3411 l61 -69 0 -843 0 -844 -60 -98 -60 -97 450 0 450 0 -70
94 -70 95 0 452 0 452 256 -321 256 -322 62 78 c33 44 147 190 251 325 105
135 193 246 198 246 4 1 7 -201 7 -449 l0 -449 -69 -98 -69 -98 441 -3 c242
-1 442 0 445 2 2 3 -23 44 -57 92 l-61 87 0 835 0 835 60 78 c33 42 60 80 60
83 0 3 -164 6 -364 6 l-364 0 -267 -365 c-147 -201 -270 -363 -274 -360 -5 2
-125 167 -267 365 l-259 360 -374 0 -373 0 61 -69z"/>
<path d="M5321 3383 c73 -76 164 -208 689 -1000 333 -502 608 -912 612 -910 4
1 284 416 622 922 581 868 620 924 694 991 l79 71 -246 6 c-369 10 -591 9
-591 -3 0 -6 7 -40 16 -75 l16 -65 -197 -302 c-108 -167 -238 -367 -289 -445
-50 -78 -94 -142 -97 -142 -4 -1 -138 199 -298 443 l-290 444 19 69 c11 37 20
71 20 75 0 5 -190 8 -422 8 l-422 0 85 -87z"/>
<path d="M4874 3406 l-60 -45 -56 15 c-82 21 -244 44 -313 44 -33 0 -100 -7
-150 -15 -369 -60 -617 -273 -707 -605 -31 -116 -33 -366 -4 -480 104 -408
453 -688 981 -786 84 -16 148 -19 405 -18 262 0 325 3 445 22 141 22 344 68
422 96 36 13 59 13 197 -1 86 -9 159 -14 162 -11 3 3 -104 157 -237 342 -149
208 -245 334 -251 328 -5 -5 -26 -37 -46 -72 -33 -56 -43 -65 -97 -86 -184
-75 -436 -124 -671 -131 -188 -6 -284 7 -397 53 -368 149 -495 542 -252 779
60 59 165 116 260 140 76 19 233 19 324 0 141 -29 323 -117 436 -209 l42 -35
67 45 c47 32 65 49 58 57 -162 207 -486 613 -491 615 -4 1 -34 -18 -67 -42z"/>
<path d="M7625 1826 c370 -125 565 -228 565 -300 0 -124 -692 -271 -1725 -365
-676 -63 -749 -66 -4225 -186 -1001 -35 -1133 -40 -1015 -43 33 -1 168 -7 300
-12 692 -28 1753 -59 2395 -69 866 -15 2165 17 3065 74 1520 97 2188 196 2328
344 106 114 -5 221 -343 331 -230 75 -599 160 -930 214 -172 28 -535 76 -578
76 -15 0 59 -29 163 -64z"/>
</g>
</svg>
